<svg xmlns="http://www.w3.org/2000/svg" width="204.886" height="36.705" viewBox="0 0 204.886 36.705">
  <g id="Group_1" data-name="Group 1" transform="translate(-681 -490.017)">
    <path id="Path_1" data-name="Path 1" d="M698.295,504.236a2.182,2.182,0,0,1,0,3.047,2.167,2.167,0,0,1-1.552.621,2.133,2.133,0,0,1-1.523-.621l-9.17-9.17a.374.374,0,0,0-.451-.084.4.4,0,0,0-.282.4v26.126a2.162,2.162,0,0,1-.621,1.551,2.132,2.132,0,0,1-1.523.62,2.072,2.072,0,0,1-1.523-.62,2.115,2.115,0,0,1-.649-1.551v-32.39a2.167,2.167,0,0,1,2.172-2.144,2.131,2.131,0,0,1,1.523.621Z" transform="translate(0 0)" fill="#d6ac84"/>
    <path id="Path_2" data-name="Path 2" d="M790.755,542.381a10.147,10.147,0,0,0-1.443.52,11.591,11.591,0,0,0-1.344.717,8.552,8.552,0,0,0,.42-2.811A8.586,8.586,0,0,0,790.755,542.381Z" transform="translate(-67.692 -32.141)" fill="#d6ac84"/>
    <path id="Path_3" data-name="Path 3" d="M789.033,549.473a9.865,9.865,0,0,0-2.44,1.525,7.283,7.283,0,0,1-.668-.857,8.271,8.271,0,0,1,2.614-1.781,8.368,8.368,0,0,1,3.066-.75,6.749,6.749,0,0,1,.19,1.072A9.806,9.806,0,0,0,789.033,549.473Z" transform="translate(-66.399 -36.446)" fill="#d6ac84"/>
    <path id="Path_4" data-name="Path 4" d="M792.3,554.677a8.707,8.707,0,0,1,2.259-.668.566.566,0,0,1-.008.115c0,.042-.008.083-.008.116v.008l-.025.149a.647.647,0,0,1-.016.123l-.025.148c-.008.041-.017.074-.025.116s-.016.107-.025.156h-.008c-.008.033-.016.074-.025.116s-.025.1-.033.148l-.008.025c-.008.025-.016.058-.025.091a.859.859,0,0,0-.041.157l-.017.033a.246.246,0,0,0-.016.066c-.025.058-.042.107-.058.157v.017l-.017.041c-.008.017-.008.025-.016.041v.008a2,2,0,0,1-.083.2c0,.017-.008.025-.008.041l-.008.017c-.033.074-.074.165-.107.247-.008.008-.008.017-.017.025l-.016.041c-.025.058-.058.115-.083.181a.169.169,0,0,1-.033.05l-.016.041a1.3,1.3,0,0,1-.082.148c-.008.025-.025.041-.033.066l-.016.033a.777.777,0,0,0-.082.14c-.016.025-.033.05-.058.083l-.008.017a.719.719,0,0,1-.066.1c-.033-.008-.074-.017-.116-.025h-.008c-.033-.008-.074-.008-.107-.017-.05-.008-.107-.025-.157-.033l-.033-.008c-.025-.008-.049-.008-.074-.016-.058-.017-.107-.025-.165-.042l-.041-.008a.156.156,0,0,0-.058-.017,1.658,1.658,0,0,1-.189-.058l-.042-.008c-.008-.008-.025-.008-.033-.016-.082-.025-.173-.049-.255-.082l-.017-.008a.143.143,0,0,1-.041-.016l-.2-.075a.119.119,0,0,0-.05-.017l-.042-.016V556.8a1.293,1.293,0,0,1-.156-.066.26.26,0,0,1-.066-.033l-.033-.016a1.14,1.14,0,0,1-.148-.066c-.025-.016-.058-.025-.082-.041l-.025-.016a.774.774,0,0,1-.14-.074l-.1-.05v-.008c-.041-.025-.091-.05-.132-.074s-.074-.041-.107-.058c-.041-.033-.083-.058-.132-.091l-.1-.066c-.041-.025-.082-.058-.124-.082v-.008a.667.667,0,0,1-.1-.066c-.025-.016-.041-.033-.066-.049a.113.113,0,0,0-.033-.025A8.987,8.987,0,0,1,792.3,554.677Z" transform="translate(-69.155 -40.495)" fill="#d6ac84"/>
    <path id="Path_5" data-name="Path 5" d="M783.289,524.645a1.474,1.474,0,0,1-.025,2,7.2,7.2,0,0,1-11.484-1.468.639.639,0,0,0-.816-.264.631.631,0,0,0-.338.783,7.211,7.211,0,0,1-6.611,9.505,1.463,1.463,0,0,1-1.5-1.319,7.23,7.23,0,0,1,1.756-5.466,7.156,7.156,0,0,1,2.976-2.02.24.24,0,0,1,.223.025.235.235,0,0,1,.132.206,5.493,5.493,0,0,1-2.111,5.021.623.623,0,0,0-.14.874.634.634,0,0,0,.882.148,6.8,6.8,0,0,0,2.622-6.183,1.547,1.547,0,0,0-.709-1.138,1.53,1.53,0,0,0-.742-.231l-.066-.157a3.333,3.333,0,0,1,6.093-2.7l.074.157a1.509,1.509,0,0,0,.05,1.978,6.77,6.77,0,0,0,6.348,2.193.627.627,0,0,0,.478-.75.619.619,0,0,0-.742-.478,5.542,5.542,0,0,1-5.144-1.8.263.263,0,0,1-.066-.231.248.248,0,0,1,.132-.19,7.223,7.223,0,0,1,8.731,1.5Z" transform="translate(-51.561 -19.153)" fill="#d6ac84"/>
    <path id="Path_6" data-name="Path 6" d="M773.491,493.177a10.464,10.464,0,0,0-7.642-3.158H752.9a10.781,10.781,0,0,0-10.8,10.775v15.12a10.781,10.781,0,0,0,10.8,10.808h12.952a10.794,10.794,0,0,0,10.808-10.808v-15.12A10.384,10.384,0,0,0,773.491,493.177Zm-2.218,15.185a8.474,8.474,0,0,1-6.15,2.614c.066.3.124.6.165.907a6.745,6.745,0,0,1,.066.915v.445a1.434,1.434,0,0,0-.008.19.556.556,0,0,0-.008.115l-.008.025a1.31,1.31,0,0,1-.017.181.711.711,0,0,1-.016.14,1.208,1.208,0,0,1-.016.181c-.008.05-.017.1-.025.14a1.2,1.2,0,0,1-.033.182c-.008.049-.017.091-.025.14s-.025.116-.033.173-.025.1-.033.14a1.413,1.413,0,0,0-.041.182l-.008.016c-.008.042-.025.074-.033.116-.017.058-.033.123-.05.181l-.008.033a.4.4,0,0,0-.033.09,1.785,1.785,0,0,1-.066.19v.008l-.008.033c-.008.025-.016.041-.025.066v.008c-.033.083-.066.157-.1.239v.016c-.008.017-.017.025-.017.041h-.008v.008c-.041.091-.082.189-.123.289-.008.017-.016.041-.025.058l-.017.025a1.167,1.167,0,0,1-.1.206c-.008.025-.025.049-.033.074l-.025.033a1.888,1.888,0,0,1-.091.181c-.016.025-.033.058-.049.083l-.016.033c-.033.049-.058.107-.091.157a1.188,1.188,0,0,1-.066.107l-.008.016-.1.148c-.025.041-.058.083-.083.124l-.016.025c-.008.017-.025.041-.033.058l-.025.025-.017.025-.05.075-.214.3-.363-.042c-.033,0-.058-.008-.091-.008l-.033-.008h-.025a.222.222,0,0,0-.074-.008l-.025-.008c-.05-.008-.1-.008-.14-.016-.066-.008-.124-.025-.181-.033h-.016l-.124-.025c-.058-.017-.19-.041-.19-.041l-.025-.008a.419.419,0,0,1-.1-.017l-.19-.05-.041-.008c-.025-.008-.05-.016-.083-.025-.074-.017-.148-.042-.223-.066l-.025-.008a.148.148,0,0,1-.058-.017c-.1-.033-.206-.066-.305-.1a.143.143,0,0,0-.041-.017l-.017-.008c-.082-.033-.165-.058-.239-.091a.3.3,0,0,0-.074-.033l-.033-.016a1.826,1.826,0,0,1-.19-.083.879.879,0,0,1-.083-.033l-.033-.017c-.058-.025-.116-.058-.173-.083a.611.611,0,0,1-.1-.058l-.025-.008c-.058-.025-.107-.058-.165-.083l-.124-.074c-.049-.025-.1-.058-.156-.091-.041-.025-.074-.05-.115-.074-.058-.033-.107-.066-.157-.1s-.082-.05-.115-.075c-.05-.033-.1-.066-.157-.107a.963.963,0,0,1-.107-.083l-.074-.05a.3.3,0,0,0-.082-.058l-.017-.017a.718.718,0,0,1-.082-.074c-.058-.041-.108-.082-.157-.124l-.025-.016c-.025-.025-.05-.042-.075-.066-.008-.008-.017-.008-.025-.016l-.041-.041c-.05-.041-.107-.091-.165-.149a6.918,6.918,0,0,1-.635-.668,6.815,6.815,0,0,1-.561-.725,8.528,8.528,0,0,1-6.051,2.82,2.737,2.737,0,0,1-2.795-2.457,8.479,8.479,0,0,1,4.922-8.541,4.61,4.61,0,0,1,.668-4.79c-.428-.453-1.459-1.352-2.489-.9a.634.634,0,0,1-.833-.322.641.641,0,0,1,.321-.833c1.773-.783,3.323.553,3.932,1.2a4.548,4.548,0,0,1,.734-.412,4.763,4.763,0,0,1,.8-.272c-.075-.89-.033-2.935,1.739-3.718a.627.627,0,1,1,.511,1.146c-1.022.462-1.047,1.83-1,2.448a4.6,4.6,0,0,1,4.006,2.712,8.488,8.488,0,0,1,9.646,2.061A2.733,2.733,0,0,1,771.273,508.362Z" transform="translate(-38.663 -0.001)" fill="#d6ac84"/>
    <path id="Path_7" data-name="Path 7" d="M862.728,490.638a2.132,2.132,0,0,1,1.523-.621,2.167,2.167,0,0,1,2.172,2.144v32.39a2.114,2.114,0,0,1-.649,1.551,2.072,2.072,0,0,1-1.523.62,2.132,2.132,0,0,1-1.523-.62,2.162,2.162,0,0,1-.621-1.551V498.424a.4.4,0,0,0-.283-.4.374.374,0,0,0-.451.084l-9.17,9.17a2.132,2.132,0,0,1-1.523.621,2.168,2.168,0,0,1-1.552-.621,2.183,2.183,0,0,1,0-3.047Z" transform="translate(-106.003 0)" fill="#d6ac84"/>
    <path id="Path_8" data-name="Path 8" d="M939.841,492.161a2.131,2.131,0,0,1,.621-1.523,2.172,2.172,0,0,1,3.7,1.523v32.39a2.118,2.118,0,0,1-.649,1.551,2.18,2.18,0,0,1-3.047,0,2.162,2.162,0,0,1-.621-1.551V510.528a.96.96,0,0,0-1.1-1.072H914.984a.948.948,0,0,0-1.073,1.072v14.023a2.165,2.165,0,0,1-.621,1.551,2.132,2.132,0,0,1-1.523.62,2.12,2.12,0,0,1-2.172-2.172v-32.39a2.133,2.133,0,0,1,.62-1.523,2.167,2.167,0,0,1,1.552-.621,2.119,2.119,0,0,1,2.144,2.144v11.878a.96.96,0,0,0,1.073,1.1H938.74a.972.972,0,0,0,1.1-1.1Z" transform="translate(-144.66 0)" fill="#d6ac84"/>
    <path id="Path_9" data-name="Path 9" d="M1016.638,526.1a2.164,2.164,0,0,1-.62-1.551v-32.39a2.133,2.133,0,0,1,.62-1.523,2.167,2.167,0,0,1,1.552-.621,2.119,2.119,0,0,1,2.144,2.144v32.39a2.165,2.165,0,0,1-.62,1.551,2.133,2.133,0,0,1-1.523.62A2.167,2.167,0,0,1,1016.638,526.1Z" transform="translate(-212.006 0)" fill="#d6ac84"/>
    <path id="Path_10" data-name="Path 10" d="M1070.055,491.343a2,2,0,0,1,1.975-1.326,2.159,2.159,0,0,1,2,2.99l-13.628,32.39a2.014,2.014,0,0,1-2,1.326H1056.6a2.016,2.016,0,0,1-2-1.326l-13.627-32.39a2.13,2.13,0,0,1,1.975-2.99,2.014,2.014,0,0,1,2,1.326l12.16,28.863a.418.418,0,0,0,.791,0Z" transform="translate(-227.674 0)" fill="#d6ac84"/>
    <path id="Path_11" data-name="Path 11" d="M1155.679,494.334a6.322,6.322,0,0,0-4.6,1.89,6.226,6.226,0,0,0-1.89,4.57v3.245a.96.96,0,0,0,1.073,1.1h27a2.076,2.076,0,0,1,1.523.621,2.173,2.173,0,0,1-1.523,3.7h-27a.948.948,0,0,0-1.073,1.072v10.806a.947.947,0,0,0,1.073,1.071h27a2.168,2.168,0,0,1,2.172,2.145,2.118,2.118,0,0,1-.649,1.551,2.072,2.072,0,0,1-1.523.62h-30.217a2.12,2.12,0,0,1-2.172-2.172V500.794a10.787,10.787,0,0,1,10.805-10.777h21.584a2.167,2.167,0,0,1,2.172,2.144,2.217,2.217,0,0,1-2.172,2.173Z" transform="translate(-293.549 0)" fill="#d6ac84"/>
  </g>
</svg>
